<svg width="651" height="580" viewBox="0 0 651 580" fill="none" xmlns="http://www.w3.org/2000/svg">
<path d="M130.675 173.652C96.4893 177.322 93.508 180.303 89.8377 214.489C86.1674 180.303 83.1861 177.322 49 173.652C83.1861 169.981 86.1674 167 89.8377 132.814C93.508 167 96.4893 169.981 130.675 173.652Z" fill="url(#paint0_linear_55_158)"/>
<path d="M158.224 108.19C142.164 109.92 140.772 111.312 139.043 127.372C137.313 111.312 135.921 109.92 119.861 108.19C135.921 106.461 137.313 105.068 139.043 89.009C140.772 105.068 142.164 106.461 158.224 108.19Z" fill="url(#paint1_linear_55_158)"/>
<path d="M566.022 527.683H193.068C188.723 527.683 185.179 524.139 185.179 519.794V253.786C185.179 249.441 188.723 245.897 193.068 245.897H566.022C570.367 245.897 573.911 249.441 573.911 253.786V519.779C573.911 524.139 570.367 527.669 566.022 527.669V527.683ZM193.068 246.713C189.173 246.713 185.995 249.877 185.995 253.786V519.779C185.995 523.675 189.159 526.853 193.068 526.853H566.022C569.917 526.853 573.095 523.675 573.095 519.779V253.786C573.095 249.891 569.931 246.713 566.022 246.713H193.068Z" fill="#FDFEFE"/>
<path d="M561.072 534.278H188.118C183.773 534.278 180.229 530.734 180.229 526.389V260.382C180.229 256.036 183.773 252.492 188.118 252.492H561.072C565.417 252.492 568.961 256.036 568.961 260.382V526.375C568.961 530.72 565.417 534.264 561.072 534.264V534.278ZM188.118 253.308C184.223 253.308 181.045 256.472 181.045 260.382V526.375C181.045 530.27 184.209 533.448 188.118 533.448H561.072C564.967 533.448 568.145 530.284 568.145 526.375V260.382C568.145 256.486 564.981 253.308 561.072 253.308H188.118Z" fill="#FDFEFE"/>
<path d="M556.122 540.874H183.182C178.837 540.874 175.293 537.33 175.293 532.984V266.977C175.293 262.632 178.837 259.088 183.182 259.088H556.136C560.481 259.088 564.025 262.632 564.025 266.977V532.97C564.025 537.316 560.481 540.86 556.136 540.86L556.122 540.874ZM183.182 259.904C179.287 259.904 176.109 263.068 176.109 266.977V532.97C176.109 536.866 179.273 540.044 183.182 540.044H556.136C560.031 540.044 563.209 536.88 563.209 532.97V266.977C563.209 263.082 560.045 259.904 556.136 259.904H183.182Z" fill="#FDFEFE"/>
<path d="M563.617 292.008H175.701V292.838H563.617V292.008Z" fill="#FDFEFE"/>
<path d="M535.168 280.21C537.801 280.21 539.936 278.075 539.936 275.443C539.936 272.81 537.801 270.675 535.168 270.675C532.535 270.675 530.401 272.81 530.401 275.443C530.401 278.075 532.535 280.21 535.168 280.21Z" fill="url(#paint2_linear_55_158)"/>
<path d="M519.01 280.21C521.643 280.21 523.778 278.075 523.778 275.443C523.778 272.81 521.643 270.675 519.01 270.675C516.378 270.675 514.243 272.81 514.243 275.443C514.243 278.075 516.378 280.21 519.01 280.21Z" fill="url(#paint3_linear_55_158)"/>
<path d="M502.853 280.21C505.485 280.21 507.62 278.075 507.62 275.443C507.62 272.81 505.485 270.675 502.853 270.675C500.22 270.675 498.085 272.81 498.085 275.443C498.085 278.075 500.22 280.21 502.853 280.21Z" fill="url(#paint4_linear_55_158)"/>
<path d="M214.879 477.409C197.146 480.348 179.203 482.219 161.189 482.275C152.188 482.275 143.174 481.797 134.231 480.615C129.759 480.011 125.315 479.195 120.913 478.197C116.512 477.142 112.166 475.862 107.919 474.273C99.4538 471.095 91.3397 466.469 84.9272 459.887C81.735 456.597 79.0209 452.814 77.01 448.679C76.4756 447.653 76.1381 446.556 75.7022 445.487C75.3225 444.404 74.774 443.364 74.535 442.239L73.7193 438.892C73.5928 438.329 73.41 437.781 73.3396 437.204L73.1428 435.489C71.9615 426.348 73.4381 417.095 76.2647 408.46C79.1053 399.798 83.2397 391.656 87.9506 383.921C90.2569 380.012 92.8866 376.328 95.4601 372.601C98.1741 368.987 100.86 365.331 103.771 361.885C106.569 358.327 109.663 355.037 112.63 351.62L117.285 346.698C118.832 345.052 120.393 343.421 122.01 341.846C134.793 329.091 148.434 317.251 162.735 306.254C191.31 284.246 222.009 265.135 253.861 248.288C285.783 231.567 318.844 217.055 352.861 205.13C369.863 199.181 387.118 193.908 404.583 189.45C422.049 184.978 439.74 181.392 457.599 178.931C462.057 178.256 466.557 177.863 471.029 177.3C475.529 176.948 480.015 176.428 484.515 176.245C493.515 175.627 502.557 175.613 511.571 175.894C520.6 176.259 529.6 177.23 538.487 178.945C547.347 180.689 556.136 183.248 564.264 187.327C572.35 191.391 579.803 197.142 584.936 204.708C590.223 212.203 592.361 221.541 592.122 230.541C591.826 239.625 589.267 248.428 585.765 256.711C582.165 264.966 577.623 272.771 572.533 280.182C577.511 272.7 581.94 264.839 585.4 256.557C588.775 248.26 591.165 239.471 591.32 230.527C591.419 221.653 589.183 212.597 583.937 205.397C578.833 198.127 571.52 192.642 563.547 188.775C555.545 184.88 546.897 182.405 538.136 180.773C529.361 179.156 520.445 178.256 511.501 177.975C502.557 177.778 493.599 177.848 484.67 178.552C480.198 178.777 475.754 179.339 471.282 179.719C466.838 180.309 462.381 180.745 457.951 181.448C422.485 186.736 387.68 196.031 353.86 207.956C320.039 219.91 287.133 234.478 255.408 251.199C223.668 267.877 193.054 286.833 164.578 308.63C150.332 319.515 136.748 331.243 124.049 343.857C122.432 345.404 120.885 347.021 119.352 348.652L114.74 353.518C111.787 356.879 108.735 360.156 105.937 363.629C103.026 367.018 100.354 370.604 97.6398 374.148C95.0804 377.79 92.4507 381.418 90.1585 385.229C85.4616 392.795 81.3412 400.754 78.5147 409.164C75.6881 417.545 74.1975 426.461 75.2662 435.207L75.435 436.853C75.4912 437.401 75.674 437.922 75.7725 438.456L76.5318 441.662C76.7428 442.745 77.2631 443.729 77.6147 444.756C78.0225 445.768 78.3459 446.837 78.8381 447.808C80.7225 451.773 83.2819 455.401 86.3194 458.579C92.4225 464.964 100.284 469.52 108.566 472.755C112.715 474.386 116.976 475.708 121.307 476.819C125.652 477.873 130.04 478.745 134.47 479.42C143.329 480.728 152.301 481.347 161.273 481.473C179.231 481.684 197.189 480.081 214.95 477.409H214.879Z" fill="url(#paint5_linear_55_158)"/>
<mask id="mask0_55_158" style="mask-type:luminance" maskUnits="userSpaceOnUse" x="72" y="175" width="521" height="308">
<path d="M214.879 477.409C197.146 480.348 179.203 482.219 161.189 482.275C152.188 482.275 143.174 481.797 134.231 480.615C129.759 480.011 125.315 479.195 120.913 478.197C116.512 477.142 112.166 475.862 107.919 474.273C99.4538 471.095 91.3397 466.469 84.9272 459.887C81.735 456.597 79.0209 452.814 77.01 448.679C76.4756 447.653 76.1381 446.556 75.7022 445.487C75.3225 444.404 74.774 443.364 74.535 442.239L73.7193 438.892C73.5928 438.329 73.41 437.781 73.3396 437.204L73.1428 435.489C71.9615 426.348 73.4381 417.095 76.2647 408.46C79.1053 399.798 83.2397 391.656 87.9506 383.921C90.2569 380.012 92.8866 376.328 95.4601 372.601C98.1741 368.987 100.86 365.331 103.771 361.885C106.569 358.327 109.663 355.037 112.63 351.62L117.285 346.698C118.832 345.052 120.393 343.421 122.01 341.846C134.793 329.091 148.434 317.251 162.735 306.254C191.31 284.246 222.009 265.135 253.861 248.288C285.783 231.567 318.844 217.055 352.861 205.13C369.863 199.181 387.118 193.908 404.583 189.45C422.049 184.978 439.74 181.392 457.599 178.931C462.057 178.256 466.557 177.863 471.029 177.3C475.529 176.948 480.015 176.428 484.515 176.245C493.515 175.627 502.557 175.613 511.571 175.894C520.6 176.259 529.6 177.23 538.487 178.945C547.347 180.689 556.136 183.248 564.264 187.327C572.35 191.391 579.803 197.142 584.936 204.708C590.223 212.203 592.361 221.541 592.122 230.541C591.826 239.625 589.267 248.428 585.765 256.711C582.165 264.966 577.623 272.771 572.533 280.182C577.511 272.7 581.94 264.839 585.4 256.557C588.775 248.26 591.165 239.471 591.32 230.527C591.419 221.653 589.183 212.597 583.937 205.397C578.833 198.127 571.52 192.642 563.547 188.775C555.545 184.88 546.897 182.405 538.136 180.773C529.361 179.156 520.445 178.256 511.501 177.975C502.557 177.778 493.599 177.848 484.67 178.552C480.198 178.777 475.754 179.339 471.282 179.719C466.838 180.309 462.381 180.745 457.951 181.448C422.485 186.736 387.68 196.031 353.86 207.956C320.039 219.91 287.133 234.478 255.408 251.199C223.668 267.877 193.054 286.833 164.578 308.63C150.332 319.515 136.748 331.243 124.049 343.857C122.432 345.404 120.885 347.021 119.352 348.652L114.74 353.518C111.787 356.879 108.735 360.156 105.937 363.629C103.026 367.018 100.354 370.604 97.6398 374.148C95.0804 377.79 92.4507 381.418 90.1585 385.229C85.4616 392.795 81.3412 400.754 78.5147 409.164C75.6881 417.545 74.1975 426.461 75.2662 435.207L75.435 436.853C75.4912 437.401 75.674 437.922 75.7725 438.456L76.5318 441.662C76.7428 442.745 77.2631 443.729 77.6147 444.756C78.0225 445.768 78.3459 446.837 78.8381 447.808C80.7225 451.773 83.2819 455.401 86.3194 458.579C92.4225 464.964 100.284 469.52 108.566 472.755C112.715 474.386 116.976 475.708 121.307 476.819C125.652 477.873 130.04 478.745 134.47 479.42C143.329 480.728 152.301 481.347 161.273 481.473C179.231 481.684 197.189 480.081 214.95 477.409H214.879Z" fill="white"/>
</mask>
<g mask="url(#mask0_55_158)">
<path d="M592.333 216.76L573.25 175.641H592.333V216.76Z" fill="url(#paint6_linear_55_158)"/>
<path d="M592.333 305.832L369.764 409.15L285.67 227.981L398.424 175.641H573.25L592.333 216.76V305.832Z" fill="url(#paint7_linear_55_158)"/>
<path d="M369.764 409.149L212.193 482.289H91.846L71.9474 439.426V327.193L285.67 227.981L369.764 409.149Z" fill="url(#paint8_linear_55_158)"/>
<path d="M71.9474 439.426L91.846 482.289H71.9474V439.426Z" fill="url(#paint9_linear_55_158)"/>
</g>
<path d="M195.445 468.479C196.303 470.378 197.695 471.939 199.34 473.092C200.957 474.287 202.87 475.033 204.811 475.455C206.765 475.919 208.79 476.017 210.801 476.003C211.814 475.933 212.826 475.905 213.825 475.806L216.848 475.384L217.242 476.973C215.456 477.55 213.656 478.295 211.912 479.083C210.168 479.87 208.481 480.784 206.878 481.811C205.289 482.851 203.784 484.061 202.673 485.566C201.52 487.042 200.915 488.955 201.253 490.909C200.55 489.053 200.986 486.859 202.026 485.144C203.081 483.4 204.6 482.022 206.161 480.812C207.736 479.589 209.479 478.605 211.237 477.705C213.009 476.819 214.823 476.073 216.736 475.412L217.129 477.001L213.993 477.423C212.939 477.508 211.87 477.536 210.815 477.592C208.692 477.494 206.54 477.381 204.487 476.706C202.434 476.101 200.451 475.145 198.82 473.739C197.245 472.304 195.923 470.519 195.431 468.479H195.445Z" fill="url(#paint10_linear_55_158)"/>
<path d="M335.578 140.287V135.773L347.982 131.498V133.987L336.478 137.84V138.192L347.982 142.045V144.534L335.578 140.259V140.287ZM359.893 124.509L361.974 125.156L353.339 151.551L351.23 150.904L359.893 124.509ZM365.925 144.562V142.073L377.429 138.22V137.868L365.925 134.015V131.526L378.329 135.801V140.315L365.925 144.59V144.562Z" fill="url(#paint11_linear_55_158)"/>
<path d="M600.475 364.641V408.643C600.475 428.865 563.729 445.403 563.729 445.403C563.729 445.403 526.97 428.851 526.97 408.643V364.641C529.403 364.613 531.878 364.374 534.353 363.91C544.703 361.941 553.422 356.288 559.412 348.568C561.592 345.769 565.867 345.769 568.033 348.568C574.023 356.288 582.728 361.941 593.078 363.91C595.567 364.374 598.028 364.613 600.461 364.641H600.475Z" fill="url(#paint12_linear_55_158)"/>
<path d="M564.714 441.043L564.629 441.001C564.264 440.832 527.743 424.168 527.743 404.059V359.846H527.94C530.401 359.818 532.876 359.565 535.295 359.115C545.209 357.23 554.054 351.816 560.228 343.843C561.297 342.451 562.928 341.663 564.7 341.663C566.472 341.663 568.103 342.465 569.172 343.843C575.345 351.802 584.19 357.23 594.091 359.115C596.523 359.565 598.984 359.818 601.445 359.846H601.642V404.059C601.642 424.168 565.136 440.846 564.77 441.001L564.686 441.043H564.714ZM528.165 360.254V404.059C528.165 423.437 562.745 439.679 564.714 440.593C566.683 439.679 601.262 423.437 601.262 404.059V360.254C598.858 360.212 596.425 359.973 594.034 359.523C584.036 357.624 575.092 352.14 568.862 344.11C567.864 342.83 566.345 342.085 564.714 342.085C563.068 342.085 561.564 342.816 560.565 344.11C554.336 352.154 545.392 357.624 535.379 359.523C533.003 359.973 530.584 360.212 528.165 360.254Z" fill="#FDFEFE"/>
<path d="M562.942 406.492L552.508 396.071L554.842 393.737L562.942 401.837L578.214 386.551L580.548 388.871L562.942 406.492Z" fill="#FDFEFE"/>
<defs>
<linearGradient id="paint0_linear_55_158" x1="49" y1="173.652" x2="130.675" y2="173.652" gradientUnits="userSpaceOnUse">
<stop stop-color="#FF7A00"/>
<stop offset="1" stop-color="#F400F9"/>
</linearGradient>
<linearGradient id="paint1_linear_55_158" x1="119.861" y1="108.19" x2="158.224" y2="108.19" gradientUnits="userSpaceOnUse">
<stop stop-color="#FF7A00"/>
<stop offset="1" stop-color="#F400F9"/>
</linearGradient>
<linearGradient id="paint2_linear_55_158" x1="530.401" y1="275.443" x2="539.936" y2="275.443" gradientUnits="userSpaceOnUse">
<stop stop-color="#FF7A00"/>
<stop offset="1" stop-color="#F400F9"/>
</linearGradient>
<linearGradient id="paint3_linear_55_158" x1="514.243" y1="275.443" x2="523.778" y2="275.443" gradientUnits="userSpaceOnUse">
<stop stop-color="#FF7A00"/>
<stop offset="1" stop-color="#F400F9"/>
</linearGradient>
<linearGradient id="paint4_linear_55_158" x1="498.085" y1="275.443" x2="507.62" y2="275.443" gradientUnits="userSpaceOnUse">
<stop stop-color="#FF7A00"/>
<stop offset="1" stop-color="#F400F9"/>
</linearGradient>
<linearGradient id="paint5_linear_55_158" x1="72.7333" y1="328.996" x2="592.14" y2="328.996" gradientUnits="userSpaceOnUse">
<stop stop-color="#FF7A00"/>
<stop offset="1" stop-color="#F400F9"/>
</linearGradient>
<linearGradient id="paint6_linear_55_158" x1="573.25" y1="196.2" x2="592.333" y2="196.2" gradientUnits="userSpaceOnUse">
<stop stop-color="#FF7A00"/>
<stop offset="1" stop-color="#F400F9"/>
</linearGradient>
<linearGradient id="paint7_linear_55_158" x1="285.67" y1="292.395" x2="592.333" y2="292.395" gradientUnits="userSpaceOnUse">
<stop stop-color="#FF7A00"/>
<stop offset="1" stop-color="#F400F9"/>
</linearGradient>
<linearGradient id="paint8_linear_55_158" x1="71.9474" y1="355.135" x2="369.764" y2="355.135" gradientUnits="userSpaceOnUse">
<stop stop-color="#FF7A00"/>
<stop offset="1" stop-color="#F400F9"/>
</linearGradient>
<linearGradient id="paint9_linear_55_158" x1="71.9474" y1="460.858" x2="91.846" y2="460.858" gradientUnits="userSpaceOnUse">
<stop stop-color="#FF7A00"/>
<stop offset="1" stop-color="#F400F9"/>
</linearGradient>
<linearGradient id="paint10_linear_55_158" x1="195.431" y1="479.694" x2="217.242" y2="479.694" gradientUnits="userSpaceOnUse">
<stop stop-color="#FF7A00"/>
<stop offset="1" stop-color="#F400F9"/>
</linearGradient>
<linearGradient id="paint11_linear_55_158" x1="335.578" y1="138.03" x2="378.329" y2="138.03" gradientUnits="userSpaceOnUse">
<stop stop-color="#FF7A00"/>
<stop offset="1" stop-color="#F400F9"/>
</linearGradient>
<linearGradient id="paint12_linear_55_158" x1="526.97" y1="395.936" x2="600.475" y2="395.936" gradientUnits="userSpaceOnUse">
<stop stop-color="#FF7A00"/>
<stop offset="1" stop-color="#F400F9"/>
</linearGradient>
</defs>
</svg>
