<svg width="283" height="365" viewBox="0 0 283 365" fill="none" xmlns="http://www.w3.org/2000/svg">
<g opacity="0.05">
<path d="M51.7695 346.412C39.1132 346.412 27.8351 337.412 25.4022 324.53L4.23806 211.946C1.49586 197.405 11.1147 183.342 25.6554 180.614L202.759 147.314C209.805 145.992 216.948 147.483 222.855 151.533C228.775 155.583 232.755 161.686 234.091 168.731L255.255 281.316C256.577 288.362 255.086 295.505 251.036 301.412C246.986 307.332 240.883 311.312 233.838 312.648L56.7336 345.948C55.0602 346.257 53.4008 346.412 51.7695 346.412ZM207.766 148.495C206.205 148.495 204.63 148.636 203.055 148.931L25.9507 182.231C12.2959 184.805 3.28182 197.996 5.85527 211.636L27.0194 324.221C28.2569 330.83 32.0116 336.568 37.5664 340.365C43.1211 344.162 49.8148 345.568 56.4383 344.317L233.542 311.016C240.152 309.779 245.889 306.024 249.686 300.469C253.483 294.915 254.889 288.221 253.638 281.597L232.474 169.013C231.236 162.403 227.481 156.666 221.927 152.869C217.694 149.972 212.786 148.467 207.766 148.467V148.495Z" fill="url(#paint0_linear_55_96)"/>
</g>
<g opacity="0.15">
<path d="M55.4961 349C50.1523 349 44.9211 347.397 40.407 344.317C34.4866 340.267 30.5069 334.164 29.171 327.118L8.00683 214.533C6.68495 207.488 8.17558 200.344 12.2256 194.438C16.2756 188.518 22.3788 184.538 29.4241 183.202L206.528 149.902C213.573 148.58 220.717 150.071 226.623 154.121C232.544 158.171 236.523 164.274 237.859 171.319L259.024 283.904C260.345 290.949 258.855 298.093 254.805 304C250.755 309.92 244.652 313.9 237.606 315.236L60.5024 348.536C58.8289 348.845 57.1555 349 55.482 349H55.4961ZM211.548 151.083C209.987 151.083 208.412 151.224 206.837 151.519L29.7335 184.819C23.1241 186.057 17.3866 189.811 13.5897 195.366C9.79278 200.921 8.38652 207.615 9.63809 214.238L30.8022 326.823C32.0397 333.432 35.7944 339.17 41.3492 342.967C46.9039 346.764 53.5977 348.17 60.2211 346.918L237.325 313.618C243.934 312.381 249.672 308.626 253.469 303.071C257.266 297.517 258.672 290.823 257.42 284.199L236.256 171.615C235.019 165.005 231.264 159.268 225.709 155.471C221.477 152.574 216.569 151.069 211.548 151.069V151.083Z" fill="url(#paint1_linear_55_96)"/>
</g>
<g opacity="0.38">
<path d="M59.3211 351.573C46.6789 351.573 35.3726 342.573 32.9538 329.692L11.7897 217.107C9.04747 202.566 18.6663 188.504 33.207 185.776L210.311 152.475C224.852 149.747 238.914 159.352 241.642 173.893L262.806 286.478C264.128 293.523 262.638 300.667 258.588 306.573C254.538 312.493 248.435 316.473 241.389 317.809L64.2852 351.109C62.6118 351.418 60.9524 351.573 59.3211 351.573ZM215.275 153.657C213.742 153.657 212.181 153.797 210.606 154.093L33.5023 187.393C19.8475 189.966 10.8334 203.157 13.4069 216.798L34.571 329.382C37.1445 343.037 50.3352 352.051 63.9759 349.478L241.08 316.178C247.689 314.94 253.427 311.185 257.224 305.631C261.02 300.076 262.427 293.382 261.175 286.759L240.011 174.174C237.733 162.094 227.144 153.643 215.261 153.643L215.275 153.657Z" fill="url(#paint2_linear_55_96)"/>
</g>
<g opacity="0.5">
<path d="M63.0477 354.16C57.704 354.16 52.4727 352.557 47.9586 349.478C42.0383 345.427 38.0585 339.324 36.7226 332.279L15.5584 219.694C12.8162 205.153 22.435 191.091 36.9757 188.363L214.08 155.063C221.125 153.741 228.269 155.231 234.175 159.281C240.095 163.331 244.075 169.434 245.411 176.48L266.575 289.065C269.317 303.605 259.699 317.668 245.158 320.396L68.054 353.696C66.3806 354.006 64.7071 354.16 63.0337 354.16H63.0477ZM219.086 156.23C217.525 156.23 215.95 156.37 214.375 156.666L37.271 189.966C23.6163 192.539 14.6022 205.73 17.1756 219.371L38.3398 331.956C39.5773 338.565 43.332 344.302 48.8867 348.099C54.4414 351.896 61.1352 353.303 67.7587 352.051L244.863 318.751C258.517 316.177 267.531 302.987 264.958 289.346L243.794 176.761C242.556 170.152 238.802 164.414 233.247 160.617C229.014 157.72 224.106 156.216 219.086 156.216V156.23Z" fill="url(#paint3_linear_55_96)"/>
</g>
<g opacity="0.62">
<path d="M66.8727 356.734C54.2164 356.734 42.9382 347.734 40.5054 334.853L19.3413 222.268C18.0194 215.223 19.51 208.079 23.56 202.172C27.61 196.252 33.7132 192.272 40.7585 190.936L217.862 157.636C224.908 156.314 232.052 157.805 237.958 161.855C243.878 165.905 247.858 172.008 249.194 179.054L270.358 291.638C271.68 298.684 270.189 305.828 266.139 311.734C262.089 317.654 255.986 321.634 248.941 322.97L71.8368 356.27C70.1634 356.579 68.504 356.734 66.8727 356.734ZM222.869 158.818C221.308 158.818 219.733 158.958 218.158 159.254L41.0539 192.554C27.3991 195.127 18.385 208.318 20.9584 221.958L42.1226 334.543C43.3601 341.153 47.1148 346.89 52.6695 350.687C58.2242 354.484 64.918 355.89 71.5415 354.639L248.645 321.339C255.255 320.101 260.992 316.346 264.789 310.792C268.586 305.237 269.992 298.543 268.741 291.92L247.577 179.335C246.339 172.725 242.584 166.988 237.03 163.191C232.797 160.294 227.889 158.789 222.869 158.789V158.818Z" fill="url(#paint4_linear_55_96)"/>
</g>
<g opacity="0.75">
<path d="M70.6415 359.307C57.9992 359.307 46.6929 350.307 44.2742 337.426L23.11 224.841C21.7882 217.796 23.2788 210.652 27.3288 204.746C31.3788 198.825 37.482 194.846 44.5273 193.51L221.631 160.21C228.677 158.888 235.82 160.378 241.727 164.428C247.647 168.478 251.627 174.581 252.963 181.627L274.141 294.212C276.869 308.752 267.264 322.815 252.724 325.543L75.6196 358.843C73.9462 359.153 72.2868 359.307 70.6556 359.307H70.6415ZM226.638 161.391C225.077 161.391 223.502 161.531 221.927 161.827L44.8226 195.127C38.2132 196.364 32.4757 200.119 28.6788 205.674C24.8819 211.229 23.4757 217.922 24.7272 224.546L45.8914 337.131C48.4648 350.785 61.6414 359.8 75.2962 357.226L252.4 323.926C266.055 321.352 275.069 308.162 272.496 294.521L251.317 181.936C250.08 175.327 246.325 169.589 240.77 165.792C236.538 162.895 231.63 161.391 226.609 161.391H226.638Z" fill="url(#paint5_linear_55_96)"/>
</g>
<g opacity="0.88">
<path d="M74.4103 361.881C61.754 361.881 50.4758 352.881 48.043 339.999L26.8788 227.415C24.1366 212.874 33.7554 198.811 48.2961 196.083L225.4 162.783C239.941 160.055 254.003 169.66 256.731 184.2L277.896 296.785C280.638 311.326 271.019 325.388 256.478 328.117L79.3744 361.417C77.7009 361.726 76.0415 361.881 74.4103 361.881ZM230.364 163.978C228.831 163.978 227.27 164.119 225.695 164.414L48.5914 197.714C34.9367 200.288 25.9225 213.479 28.496 227.119L49.6602 339.704C50.8977 346.314 54.6524 352.051 60.2071 355.848C65.7618 359.645 72.4556 361.051 79.079 359.8L256.183 326.499C269.838 323.926 278.852 310.735 276.278 297.095L255.114 184.51C252.836 172.43 242.247 163.978 230.364 163.978Z" fill="url(#paint6_linear_55_96)"/>
</g>
<path d="M78.179 364.468C65.5227 364.468 54.2305 355.468 51.8117 342.587L30.6475 230.002C27.9194 215.462 37.5242 201.399 52.0648 198.671L229.169 165.371C236.214 164.049 243.358 165.539 249.264 169.589C255.185 173.639 259.164 179.743 260.5 186.788L281.678 299.373C284.407 313.914 274.802 327.976 260.261 330.704L83.1572 364.004C81.4837 364.314 79.8243 364.468 78.1931 364.468H78.179ZM234.175 166.552C232.614 166.552 231.039 166.693 229.464 166.988L52.3601 200.288C38.7054 202.861 29.6913 216.052 32.2648 229.693L53.4289 342.278C56.0024 355.933 69.1931 364.933 82.8337 362.373L259.938 329.073C273.592 326.514 282.607 313.309 280.033 299.668L258.855 187.083C257.617 180.474 253.863 174.736 248.308 170.939C244.075 168.043 239.167 166.538 234.147 166.538L234.175 166.552Z" fill="url(#paint7_linear_55_96)"/>
<path d="M78.1792 364.468C65.5229 364.468 54.2307 355.468 51.8119 342.587L30.6477 230.002C27.9196 215.462 37.5243 201.399 52.065 198.671L229.169 165.371C236.214 164.049 243.358 165.539 249.264 169.589C255.185 173.639 259.164 179.743 260.5 186.788L281.679 299.373C284.407 313.914 274.802 327.976 260.261 330.704L83.1573 364.004C81.4839 364.314 79.8245 364.468 78.1933 364.468H78.1792Z" fill="url(#paint8_linear_55_96)"/>
<path d="M162.878 259.463L171.541 287.012L150.137 291.034L148.197 262.206C144.526 260.518 141.714 257.143 140.912 252.868C139.59 245.851 144.203 239.115 151.206 237.793C158.223 236.471 164.959 241.084 166.281 248.087C167.083 252.348 165.676 256.524 162.878 259.435V259.463Z" fill="#0F0F0F"/>
<path d="M134.528 285.114V284.889L132.587 256.187C128.79 254.401 126.076 250.886 125.303 246.751C124.656 243.306 125.387 239.818 127.356 236.921C129.325 234.025 132.32 232.084 135.751 231.437C142.867 230.101 149.73 234.798 151.065 241.9C151.839 246.02 150.573 250.295 147.69 253.347L156.381 281.008L156.156 281.05L134.528 285.114ZM138.184 231.62C137.411 231.62 136.623 231.69 135.836 231.845C132.503 232.478 129.62 234.362 127.708 237.16C125.795 239.959 125.092 243.334 125.711 246.681C126.47 250.717 129.142 254.148 132.883 255.864L132.995 255.92V256.047L134.922 284.636L155.875 280.698L147.24 253.248L147.325 253.164C150.179 250.196 151.431 246.02 150.672 241.998C149.533 235.909 144.175 231.648 138.198 231.648L138.184 231.62Z" fill="#FDFEFE"/>
<path d="M42.6571 195.873C40.9415 196.196 39.2821 195.057 38.9587 193.341L23.0539 108.769C13.7164 59.1282 46.5102 11.1327 96.1652 1.79515C120.212 -2.73299 144.583 2.38578 164.791 16.1952C184.998 30.0047 198.611 50.8594 203.139 74.9064L219.044 159.479C219.367 161.194 218.228 162.854 216.513 163.177L196.825 166.876C195.109 167.199 193.45 166.06 193.127 164.344L177.222 79.7721C174.001 62.6439 164.298 47.7938 149.912 37.9641C136.3 28.6547 120.029 24.8999 103.815 27.2484C66.7463 32.6062 42.2774 68.3533 49.1962 105.155L64.8619 188.476C65.1853 190.191 64.0463 191.851 62.3307 192.174L42.6431 195.873H42.6571Z" fill="url(#paint9_linear_55_96)"/>
<path d="M47.9587 354.484C42.7274 354.484 37.6227 352.923 33.2211 349.9C27.4414 345.948 23.5461 339.986 22.2523 333.095L1.07405 220.524C-1.47127 207.01 6.9241 193.791 20.1851 190.332L4.87096 108.825C-4.48064 59.0718 28.3976 10.9778 78.151 1.61212C102.24 -2.93008 126.667 2.20275 146.931 16.0403C167.167 29.8779 180.822 50.7749 185.364 74.8781L200.678 156.343C214.417 154.599 227.144 163.866 229.717 177.507L250.896 290.106C252.189 296.982 250.727 303.957 246.775 309.737C242.824 315.517 236.847 319.426 229.97 320.72L52.8665 354.02C51.2352 354.329 49.5899 354.484 47.9727 354.484H47.9587ZM95.3073 0.402742C89.6401 0.402742 83.9166 0.937119 78.2213 2.00587C28.6929 11.3294 -4.03065 59.2124 5.27877 108.741L20.6773 190.627L20.4945 190.669C7.33191 194.002 -1.0072 207.08 1.49593 220.44L22.6742 333.01C23.9538 339.789 27.7789 345.667 33.4742 349.548C39.1696 353.443 46.0321 354.878 52.8102 353.612L229.914 320.312C236.692 319.032 242.556 315.207 246.452 309.512C250.347 303.817 251.781 296.954 250.516 290.19L229.338 177.591C226.792 164.091 214.15 154.95 200.566 156.778L200.369 156.807L200.327 156.61L184.97 74.9484C180.456 50.9436 166.858 30.1451 146.72 16.3638C131.336 5.85902 113.532 0.388682 95.3354 0.388682L95.3073 0.402742ZM46.1587 185.79L46.1164 185.593L31.0133 105.197C27.6383 87.225 31.7586 68.4234 42.3477 53.6155C52.7681 39.0326 68.2087 29.5966 85.801 27.0513C102.057 24.7029 118.482 28.5279 132.053 37.8092C146.495 47.6811 156.226 62.5733 159.447 79.7437L174.817 161.574L174.62 161.616L46.1727 185.79H46.1587ZM95.1667 26.7841C92.0729 26.7841 88.9651 27.0091 85.8573 27.4591C68.3775 29.9904 53.0352 39.3701 42.6852 53.8545C32.1664 68.564 28.0601 87.2531 31.4211 105.113L46.4961 185.311L174.339 161.25L159.039 79.8281C155.833 62.7702 146.172 47.9764 131.828 38.1607C120.929 30.7076 108.189 26.7982 95.1808 26.7982L95.1667 26.7841Z" fill="#FDFEFE"/>
<defs>
<linearGradient id="paint0_linear_55_96" x1="3.77111" y1="246.628" x2="255.724" y2="246.628" gradientUnits="userSpaceOnUse">
<stop stop-color="#FF7A00"/>
<stop offset="1" stop-color="#F400F9"/>
</linearGradient>
<linearGradient id="paint1_linear_55_96" x1="7.53753" y1="249.216" x2="259.493" y2="249.216" gradientUnits="userSpaceOnUse">
<stop stop-color="#FF7A00"/>
<stop offset="1" stop-color="#F400F9"/>
</linearGradient>
<linearGradient id="paint2_linear_55_96" x1="11.3227" y1="251.793" x2="263.276" y2="251.793" gradientUnits="userSpaceOnUse">
<stop stop-color="#FF7A00"/>
<stop offset="1" stop-color="#F400F9"/>
</linearGradient>
<linearGradient id="paint3_linear_55_96" x1="15.0915" y1="254.377" x2="267.042" y2="254.377" gradientUnits="userSpaceOnUse">
<stop stop-color="#FF7A00"/>
<stop offset="1" stop-color="#F400F9"/>
</linearGradient>
<linearGradient id="paint4_linear_55_96" x1="18.872" y1="256.951" x2="270.827" y2="256.951" gradientUnits="userSpaceOnUse">
<stop stop-color="#FF7A00"/>
<stop offset="1" stop-color="#F400F9"/>
</linearGradient>
<linearGradient id="paint5_linear_55_96" x1="22.6407" y1="259.524" x2="274.604" y2="259.524" gradientUnits="userSpaceOnUse">
<stop stop-color="#FF7A00"/>
<stop offset="1" stop-color="#F400F9"/>
</linearGradient>
<linearGradient id="paint6_linear_55_96" x1="26.4118" y1="262.1" x2="278.363" y2="262.1" gradientUnits="userSpaceOnUse">
<stop stop-color="#FF7A00"/>
<stop offset="1" stop-color="#F400F9"/>
</linearGradient>
<linearGradient id="paint7_linear_55_96" x1="30.1844" y1="264.685" x2="282.142" y2="264.685" gradientUnits="userSpaceOnUse">
<stop stop-color="#FF7A00"/>
<stop offset="1" stop-color="#F400F9"/>
</linearGradient>
<linearGradient id="paint8_linear_55_96" x1="29.776" y1="230.987" x2="333.776" y2="247.987" gradientUnits="userSpaceOnUse">
<stop stop-color="#F400F9"/>
<stop offset="1" stop-color="#FF7A00"/>
</linearGradient>
<linearGradient id="paint9_linear_55_96" x1="21.4656" y1="98.058" x2="219.099" y2="98.058" gradientUnits="userSpaceOnUse">
<stop stop-color="#FF7A00"/>
<stop offset="1" stop-color="#F400F9"/>
</linearGradient>
</defs>
</svg>
