<svg width="58" height="58" viewBox="0 0 58 58" fill="none" xmlns="http://www.w3.org/2000/svg">
<g clip-path="url(#clip0_12_2391)">
<path d="M10.9863 13.4192V27.0365C10.986 27.3779 11.0528 27.716 11.1827 28.0313C11.3126 28.3466 11.5031 28.6328 11.7431 28.8735L40.1387 57.2612C40.6105 57.7338 41.2483 57.9993 41.9133 57.9999H54.9506C55.2846 57.9985 55.615 57.9308 55.923 57.8006C56.231 57.6704 56.5106 57.4803 56.7458 57.2411C56.981 57.002 57.1672 56.7184 57.2938 56.4066C57.4203 56.0949 57.4847 55.761 57.4834 55.4241V42.556C57.484 41.8795 57.2215 41.2297 56.7523 40.7463L28.1644 11.4883C27.6891 10.9972 27.339 10.8369 26.661 10.8369H13.5178C13.1834 10.8384 12.8525 10.9065 12.5442 11.0372C12.2359 11.1678 11.9562 11.3585 11.7211 11.5984C11.4859 11.8383 11.3 12.1225 11.1739 12.435C11.0478 12.7474 10.9841 13.0818 10.9863 13.4192Z" fill="url(#paint0_linear_12_2391)"/>
<path d="M0 2.58224V16.2452C0.000119916 16.5881 0.0679018 16.9276 0.199397 17.2439C0.330891 17.5602 0.52347 17.8469 0.765911 18.0874L29.4766 46.5519C29.9547 47.0273 30.5992 47.2936 31.2706 47.2932H44.4538C45.1327 47.2929 45.7836 47.0207 46.2636 46.5365C46.7436 46.0523 47.0134 45.3957 47.0138 44.711V31.8128C47.0142 31.1333 46.7487 30.4811 46.275 29.998L17.6715 0.768679C17.4335 0.524949 17.1498 0.331455 16.8369 0.199481C16.524 0.0675072 16.1882 -0.000304301 15.8491 1.0265e-06H2.55992C1.8811 0.000346248 1.23017 0.272513 0.750163 0.756702C0.270158 1.24089 0.000342238 1.89749 0 2.58224Z" fill="white"/>
<path d="M0.00775146 35.9819L3.36588 46.6653L14.0964 55.9154C15.5677 57.2566 17.4799 57.9994 19.4629 58H27.3907C31.1363 58 32.9445 53.3788 30.2063 50.8005L16.4109 36.6334L0.00775146 35.9819Z" fill="url(#paint1_linear_12_2391)"/>
<path d="M5.55382 25.7453L15.7871 35.9701C19.955 40.1274 17.0334 47.2931 11.1722 47.2931H6.2642C5.44175 47.2936 4.62727 47.1306 3.86729 46.8135C3.1073 46.4964 2.41671 46.0313 1.83498 45.4449C1.25324 44.8584 0.791762 44.1621 0.476909 43.3957C0.162056 42.6293 -1.57533e-07 41.8078 0 40.9782L0 28.08C0 25.1591 3.49762 23.6881 5.55382 25.7453Z" fill="white"/>
<path d="M37.0828 4.32808L37.5465 17.2705C37.576 18.1066 37.9184 18.9003 38.5048 19.4919L52.3971 33.5053C54.4637 35.5898 58 34.1137 58 31.1602V19.8632C58.0001 18.258 57.6867 16.6685 57.0777 15.1855C56.4687 13.7026 55.576 12.3551 54.4507 11.2201L44.3389 1.93475C43.8162 1.45496 43.154 1.15799 42.4506 1.08791L40.685 0.912021C40.2189 0.865594 39.7484 0.920328 39.305 1.07255C38.8617 1.22476 38.4557 1.47094 38.1145 1.79453C37.7733 2.11812 37.5047 2.51163 37.3267 2.94863C37.1488 3.38562 37.0656 3.85597 37.0828 4.32808Z" fill="url(#paint2_linear_12_2391)"/>
<path d="M40.5558 21.5477L30.32 11.323C26.1546 7.16564 29.0762 1.20968e-06 34.9374 1.20968e-06H39.8454C40.6679 -0.00051227 41.4824 0.162448 42.2424 0.479571C43.0023 0.796694 43.6929 1.26176 44.2747 1.84821C44.8564 2.43465 45.3179 3.13097 45.6327 3.89738C45.9476 4.66379 46.1096 5.48527 46.1096 6.31489V19.213C46.1096 22.134 42.612 23.6049 40.5558 21.5477Z" fill="white"/>
</g>
<defs>
<linearGradient id="paint0_linear_12_2391" x1="23.7342" y1="43.3051" x2="44.5125" y2="26.0206" gradientUnits="userSpaceOnUse">
<stop stop-color="#FF5C00"/>
<stop offset="1" stop-color="#F400F9"/>
</linearGradient>
<linearGradient id="paint1_linear_12_2391" x1="21.8653" y1="40.7217" x2="8.01009" y2="52.2468" gradientUnits="userSpaceOnUse">
<stop stop-color="#FF5C00"/>
<stop offset="1" stop-color="#F400F9"/>
</linearGradient>
<linearGradient id="paint2_linear_12_2391" x1="41.3489" y1="22.9301" x2="54.8854" y2="11.6693" gradientUnits="userSpaceOnUse">
<stop stop-color="#FF5C00"/>
<stop offset="1" stop-color="#F400F9"/>
</linearGradient>
<clipPath id="clip0_12_2391">
<rect width="58" height="58" fill="white"/>
</clipPath>
</defs>
</svg>
